<?xml version="1.0" ?><svg xmlns="http://www.w3.org/2000/svg" xmlns:xlink="http://www.w3.org/1999/xlink" version="1.1" viewBox="0 0 512 512" style="enable-background:new 0 0 512 512;" xml:space="preserve"><style type="text/css">
	.st0{fill:#231A15;}
	.st1{fill:#FFE000;}
	.st2{fill:#BCA100;}
	.st3{fill:#FC0000;}
	.st4{fill:#AA0000;}
	.st5{fill:#F94343;}
	.st6{fill:#FFFFFF;}
	.st7{fill:#A58E07;}
	.st8{opacity:0.44;}
	.st9{fill:#756204;}
	.st10{opacity:0.64;}
	.st11{opacity:0.38;}
	.st12{fill:#5D5004;}
	.st13{fill:#B7A100;}
	.st14{fill:#1D4DFC;}
	.st15{fill:#143CAF;}
	.st16{opacity:0.59;}
	.st17{opacity:0.52;}
	.st18{fill:#FF7F1F;}
	.st19{fill:#C4570C;}
	.st20{fill:#B29904;}
	.st21{fill:#87720A;}
	.st22{fill:#DDDDDD;}
	.st23{opacity:0.51;}
	.st24{fill:#878787;}
	.st25{fill:#727272;}
	.st26{opacity:0.33;}
	.st27{opacity:0.46;}
	.st28{fill:#25CBF2;}
	.st29{fill:#0A8FA5;}
	.st30{opacity:0.58;}
	.st31{fill:#04889E;}
	.st32{fill:#035A63;}
	.st33{opacity:0.65;}
	.st34{opacity:0.39;}
	.st35{fill:#AB0000;}
	.st36{fill:#1987A1;}
	.st37{fill:#3F1F0A;}
	.st38{fill:#4DEEFF;}
	.st39{fill:#21B9C1;}
	.st40{fill:#BBF9FF;}
	.st41{fill:#64ACAF;}
	.st42{fill:#089FB7;}
	.st43{opacity:0.47;}
	.st44{opacity:0.42;}
	.st45{fill:#DBF7FC;}
	.st46{fill:#B2E7ED;}
	.st47{fill:#0FA2BA;}
	.st48{opacity:0.54;}
	.st49{fill:#8E7716;}
	.st50{fill:#191401;}
	.st51{fill:#382E02;}
	.st52{fill:#605106;}
	.st53{fill:#AFACA0;}
	.st54{fill:#BC0404;}
	.st55{fill:#750000;}
	.st56{fill:#A08B0D;}
	.st57{fill:#5B4C05;}
	.st58{opacity:0.4;}
	.st59{opacity:0.5;}
	.st60{fill:#FF8383;}
	.st61{fill:#FFF0A6;}
	.st62{fill:#E2C227;}
	.st63{fill:#AA9205;}
	.st64{fill:#FFEA71;}
	.st65{opacity:0.22;}
	.st66{fill:#B19B00;}
	.st67{fill:#1989A4;}
	.st68{fill:#13A0B7;}
	.st69{fill:#C4A805;}
	.st70{fill:#FFF3A9;}
	.st71{fill:#846E03;}
	.st72{fill:#2D2502;}
	.st73{opacity:0.36;}
	.st74{fill:#4DD307;}
	.st75{fill:#328402;}
	.st76{fill:#97FF5A;}
	.st77{fill:#7A6500;}
	.st78{fill:#246001;}
	.st79{fill:#359100;}
	.st80{fill:#968022;}
	.st81{fill:#4F420B;}
	.st82{fill:#FFED83;}
	.st83{fill:#BAA335;}
	.st84{fill:#8D0991;}
	.st85{fill:#4B044F;}
	.st86{fill:#CE15CE;}
	.st87{fill:#897502;}
	.st88{fill:#493D01;}
	.st89{fill:#C9C9C9;}
	.st90{fill:#2D280E;}
	.st91{fill:#378C06;}
	.st92{fill:#183A03;}
	.st93{fill:#94FF55;}
	.st94{fill:#2E7F04;}
	.st95{fill:#63AB39;}
	.st96{fill:#AA5F04;}
	.st97{fill:#633502;}
	.st98{fill:#EF9014;}
	.st99{fill:#A05A07;}
	.st100{fill:#05616B;}
	.st101{fill:#033335;}
	.st102{fill:#0E94AA;}
	.st103{fill:#035D66;}
	.st104{opacity:0.27;}
	.st105{opacity:0.43;}
	.st106{fill:#FFF203;}
	.st107{fill:#FFA300;}
	.st108{fill:#2B3030;}
	.st109{opacity:0.28;}
	.st110{fill:#FCD17A;}
	.st111{fill:#AF853A;}
	.st112{opacity:0.31;}
	.st113{fill:#B641FF;}
	.st114{fill:#700FBC;}
	.st115{fill:#F2D0B1;}
	.st116{fill:#AF835F;}
	.st117{fill:#C17540;}
	.st118{fill:#F2BA94;}
	.st119{fill:#592909;}
	.st120{fill:#2B1204;}
	.st121{fill:#894818;}
	.st122{fill:#512609;}
	.st123{fill:#FF7F15;}
	.st124{fill:#A04A0A;}
	.st125{fill:#B7865E;}
	.st126{fill:#70350E;}
	.st127{fill:#3A1805;}
	.st128{fill:#C1521B;}
	.st129{fill:#FFC7AE;}
	.st130{fill:#FF717F;}
	.st131{fill:#6E2F0F;}
	.st132{fill:#AC8675;}
	.st133{opacity:0.25;}
	.st134{opacity:0.32;}
	.st135{fill:#FFFCC5;}
	.st136{fill:#D1CA78;}
	.st137{fill:#D37733;}
	.st138{fill:#A04F18;}
	.st139{fill:#0ABFBA;}
	.st140{fill:#057F79;}
	.st141{fill:#15F9F9;}
	.st142{fill:#09B2AD;}
	.st143{fill:#B2B2B2;}
	.st144{fill:#FFF755;}
	.st145{fill:#BCB121;}
	.st146{fill:#F90368;}
	.st147{opacity:0.49;}
	.st148{fill:#B50857;}
	.st149{fill:#FF76B4;}
	.st150{fill:#F23091;}
	.st151{fill:#FFF800;}
	.st152{fill:#C9BF05;}
	.st153{fill:#FF8500;}
	.st154{fill:#A35507;}
	.st155{fill:#AA6E50;}
	.st156{fill:#723C25;}
	.st157{fill:#EAD4B9;}
	.st158{fill:#AA8D6F;}
	.st159{fill:#B7A8A5;}
	.st160{fill:#84726F;}
	.st161{fill:#77645F;}
	.st162{fill:#51403C;}
	.st163{fill:#EABBA7;}
	.st164{fill:#BC7F69;}
	.st165{fill:#7C5039;}
	.st166{fill:#442619;}
	.st167{fill:#B7AE04;}
	.st168{fill:#BAB108;}
	.st169{fill:#7A7105;}
	.st170{fill:#352B23;}
	.st171{fill:#050403;}
	.st172{fill:#706255;}
	.st173{fill:#44382E;}
	.st174{fill:#634319;}
	.st175{fill:#35210A;}
	.st176{fill:#2D1C08;}
	.st177{fill:#0A0601;}
	.st178{fill:#9E7443;}
	.st179{fill:#704D2A;}
	.st180{fill:#D8A73A;}
	.st181{fill:#A0741C;}
	.st182{fill:#3F2F28;}
	.st183{fill:#211410;}
	.st184{fill:#FF326C;}
	.st185{fill:#BC0749;}
	.st186{fill:#68390E;}
	.st187{fill:#A5632D;}
	.st188{fill:#3D1E05;}
	.st189{fill:#331A06;}
	.st190{fill:#110801;}
	.st191{fill:#160A02;}
	.st192{fill:#663514;}
	.st193{opacity:0.29;}
	.st194{fill:#FC001F;}
	.st195{fill:#AF021F;}
	.st196{fill:#C48622;}
	.st197{fill:#8C5910;}
	.st198{fill:#846D64;}
	.st199{fill:#513B35;}
	.st200{fill:#5B4842;}
	.st201{fill:#332522;}
	.st202{fill:#47332C;}
	.st203{fill:#543E38;}
	.st204{fill:#1E1412;}
	.st205{fill:#604C43;}
	.st206{fill:#D3896C;}
	.st207{fill:#FF001F;}
	.st208{fill:#AF0824;}
	.st209{fill:#A37462;}
	.st210{fill:#5E3E34;}
	.st211{fill:#874A38;}
	.st212{fill:#4C2218;}
	.st213{fill:#5B2B20;}
	.st214{fill:#210C09;}
	.st215{fill:#99001A;}
	.st216{fill:#A08A07;}
	.st217{fill:#A08904;}
	.st218{fill:#5B4C02;}
	.st219{fill:#CECAB7;}
	.st220{fill:#727068;}
	.st221{fill:#42403A;}
	.st222{fill:#B2B0A6;}
	.st223{fill:#726F62;}
	.st224{fill:#6B4F45;}
	.st225{fill:#3A261F;}
	.st226{fill:#777468;}
	.st227{fill:#474436;}
	.st228{fill:#B78B7D;}
	.st229{fill:#845A4E;}
	.st230{fill:#3A372D;}
	.st231{fill:#43CFFF;}
	.st232{fill:#13A0BC;}
</style><g id="_x31_0"><g><path class="st0" d="M413.81,459.74c-0.82,0.73-1.59,1.32-2.11,1.71c-1.82,1.38-3.83,2.59-5.9,3.56    c-0.23,0.11-0.47,0.22-0.71,0.32c-4.61,2-9.68,2.91-14.73,2.64c-2.88,0.1-5.95-0.5-9.09-1.8c-5.18-1.82-9.84-4.93-13.49-9.02    L207.74,277.99c-0.33,0.13-0.65,0.25-0.98,0.37l-0.11,0.04c-0.22,0.08-0.44,0.16-0.66,0.24c-0.98,0.34-1.9,0.63-2.82,0.88    c-0.18,0.05-0.31,0.08-0.42,0.11c-0.79,0.21-1.61,0.41-2.43,0.58c-0.22,0.05-0.43,0.09-0.65,0.13l-0.13,0.03    c-0.72,0.14-1.43,0.25-2.14,0.35c-0.33,0.05-0.56,0.08-0.78,0.1c-0.8,0.09-1.6,0.16-2.36,0.21c-0.16,0.01-0.31,0.02-0.45,0.03    c-1,0.05-1.99,0.05-2.95,0.02c-0.08,0-0.18-0.01-0.28-0.01c-0.85-0.03-1.67-0.1-2.54-0.2l-0.46-0.06    c-0.88-0.11-1.7-0.25-2.49-0.41l-0.4-0.08c-2.97-0.65-5.74-1.7-8.24-3.13l-0.23-0.13c-0.83-0.49-1.62-1-2.36-1.55    c-0.07-0.05-0.15-0.11-0.22-0.16c-2.74-2.05-5.03-4.64-6.74-7.65c-0.57-0.91-1.14-1.87-1.68-2.88c-0.4,0.49-0.8,0.96-1.2,1.42    l-0.26,0.29c-0.95,1.08-1.93,2.14-2.9,3.12c-0.05,0.05-0.15,0.15-0.21,0.21c-1.06,1.06-2.13,2.08-3.19,3.03    c-0.85,0.76-1.74,1.52-2.73,2.32c-0.24,0.19-0.47,0.37-0.7,0.55l-0.22,0.17c-0.63,0.5-1.26,0.98-1.9,1.45    c-0.31,0.23-0.64,0.46-0.97,0.69l-0.17,0.12c-0.58,0.41-1.16,0.81-1.74,1.2c-0.42,0.28-0.83,0.54-1.24,0.81    c-0.57,0.36-1.14,0.71-1.72,1.06c-0.45,0.27-0.88,0.52-1.32,0.77c-0.58,0.33-1.16,0.64-1.74,0.96l-0.24,0.13    c-0.36,0.19-0.72,0.39-1.08,0.57c-0.57,0.29-1.14,0.56-1.72,0.84l-0.41,0.2c-0.33,0.16-0.67,0.32-1.01,0.47    c-0.98,0.44-1.97,0.86-2.97,1.26c-0.43,0.17-0.86,0.33-1.3,0.49l-0.64,0.24c-0.41,0.15-0.82,0.31-1.23,0.45    c-0.52,0.18-1.06,0.36-1.6,0.53l-0.35,0.11c-0.41,0.13-0.81,0.26-1.22,0.38c-0.62,0.18-1.24,0.36-1.87,0.53    c-0.45,0.12-0.89,0.24-1.34,0.35c-0.64,0.16-1.28,0.31-1.93,0.46c-0.42,0.09-0.83,0.18-1.24,0.26c-0.68,0.14-1.36,0.27-2.05,0.39    c-0.29,0.05-0.55,0.09-0.82,0.13l-0.25,0.04c-0.74,0.12-1.49,0.24-2.24,0.33c-0.07,0.01-0.17,0.02-0.25,0.03    c-1.88,0.24-3.85,0.41-5.8,0.5c-0.04,0-0.09,0-0.13,0.01c-17.89,0.81-35.4-4.79-49.39-15.79c-0.29-0.21-0.57-0.43-0.84-0.67    c0,0-0.01-0.01-0.01-0.01c-3.13-2.54-6.04-5.31-8.67-8.25c-4.79-5.36-8.77-11.38-11.83-17.89c-5.49-11.22-7.82-23.32-6.93-35.94    c0-0.04,0.01-0.09,0.01-0.11c0.02-0.34,0.05-0.62,0.07-0.89c0.75-10.58,3.81-21.06,8.84-30.31c0.77-1.45,1.31-2.33,1.46-2.57    c0.01-0.02,0.02-0.03,0.03-0.05c2.64-4.42,5.73-8.54,9.22-12.31c-7.41-8.61-12.8-18.92-15.63-29.92c-5.59-19-2.8-38.6,8.08-56.69    l0.11-0.18c0.05-0.09,0.12-0.2,0.17-0.29c0.02-0.03,0.03-0.05,0.05-0.08c3.81-6.28,8.53-11.95,14.03-16.87    c6.72-6.01,14.39-10.69,22.8-13.92c1.65-0.63,3.37-1.22,5.11-1.75l0.26-0.08c0.74-0.22,1.49-0.43,2.24-0.63l0.75-0.2    c0.72-0.18,1.46-0.36,2.21-0.53l0.62-0.13c2.35-0.5,4.78-0.9,7.2-1.17l0.84-0.09c0.71-0.07,1.42-0.13,2.13-0.18l0.92-0.06    c0.74-0.04,1.45-0.08,2.16-0.1l0.41-0.01c1.36-0.03,2.83-0.03,4.32,0.02l0.25,0.01c0.26,0.01,0.53,0.02,0.79,0.03    c0.65,0.03,1.28,0.07,1.92,0.12c0.41,0.03,0.83,0.06,1.25,0.1c0.62,0.06,1.23,0.11,1.84,0.18c0.38,0.04,0.75,0.09,1.12,0.14    l0.23,0.03c0.96,0.13,1.91,0.27,2.86,0.44l0.28,0.05c0.46,0.08,0.92,0.16,1.38,0.25c0.48,0.09,0.94,0.19,1.4,0.29l0.21,0.05    c0.51,0.11,1.03,0.23,1.54,0.35c0.53,0.13,1.04,0.26,1.56,0.39c0.57,0.15,1.12,0.3,1.67,0.46l0.23,0.07    c0.39,0.11,0.78,0.22,1.17,0.35c0.94,0.29,1.89,0.6,2.83,0.94c0.28,0.1,0.56,0.21,0.84,0.31l0.26,0.1    c0.65,0.24,1.31,0.49,1.95,0.75c0.43,0.17,0.84,0.35,1.26,0.53c0.61,0.26,1.22,0.53,1.83,0.81l0.19,0.09    c0.33,0.15,0.66,0.3,0.99,0.46c0.75,0.36,1.52,0.75,2.29,1.15c0.24,0.12,0.43,0.22,0.63,0.32c0.92,0.49,1.86,1.02,2.78,1.57    c0.24,0.14,0.49,0.29,0.73,0.44l0.22,0.13c0.65,0.4,1.29,0.8,1.92,1.22c0.33,0.22,0.66,0.43,0.99,0.66    c0.67,0.46,1.34,0.93,2.01,1.42l0.15,0.11c0.2,0.14,0.39,0.28,0.58,0.43c0.9,0.67,1.78,1.37,2.63,2.06    c0.17,0.14,0.32,0.27,0.48,0.41l0.11,0.09c0.68,0.57,1.34,1.15,2,1.74c0.29,0.26,0.56,0.52,0.84,0.77    c0.59,0.55,1.18,1.12,1.76,1.69l0.14,0.14c0.2,0.2,0.4,0.39,0.6,0.6c0.52,0.53,1.01,1.04,1.46,1.53    c20.02-14.76,46.2-18.59,69.92-9.86l0.39,0.15c1.05,0.39,2.11,0.81,3.1,1.24l0.76,0.33c0.89,0.39,1.78,0.8,2.67,1.23    c0.27,0.13,0.53,0.26,0.8,0.4l0.17,0.09c0.81,0.41,1.6,0.83,2.39,1.27c0.36,0.2,0.73,0.41,1.1,0.62c0.74,0.43,1.47,0.86,2.19,1.32    c0.38,0.24,0.77,0.48,1.16,0.74c0.69,0.45,1.37,0.91,2.05,1.38l0.1,0.07c0.36,0.25,0.72,0.51,1.08,0.77    c0.66,0.48,1.3,0.97,1.94,1.47l0.26,0.2c0.31,0.24,0.62,0.48,0.92,0.73c0.63,0.52,1.26,1.06,1.89,1.6l0.26,0.22    c0.28,0.24,0.56,0.48,0.84,0.73c0.67,0.61,1.32,1.23,1.96,1.85l0.2,0.19c0.25,0.23,0.49,0.47,0.73,0.71    c0.95,0.95,1.87,1.93,2.73,2.89c27.33,30.59,24.67,77.71-5.92,105.04c-2.96,2.64-6.1,5.03-9.4,7.15l0.05,0.02    c0.49,0.22,0.97,0.46,1.44,0.7c0.08,0.04,0.23,0.13,0.33,0.18c0.42,0.23,0.83,0.47,1.23,0.72l0.34,0.21    c0.49,0.31,0.96,0.65,1.42,0.99l0.32,0.24c0.5,0.39,0.94,0.75,1.35,1.13c0.05,0.04,0.1,0.09,0.15,0.13    c0.45,0.42,0.9,0.87,1.38,1.38l0.25,0.28c0.48,0.54,0.9,1.06,1.29,1.58c0.06,0.09,0.18,0.25,0.24,0.34    c0.31,0.43,0.64,0.93,0.95,1.43c0.06,0.1,0.12,0.2,0.18,0.3c0.36,0.62,0.67,1.22,0.98,1.88l0.17,0.37    c0.33,0.73,0.58,1.38,0.81,2.03c0.03,0.09,0.08,0.23,0.11,0.34c0.18,0.54,0.37,1.18,0.53,1.83c0.02,0.06,0.05,0.21,0.09,0.35    c0.16,0.69,0.3,1.39,0.41,2.11l0.06,0.43c0.11,0.81,0.19,1.54,0.23,2.25c0.42,6.73-1.37,13.97-5.34,21.53    c-0.29,0.56-0.6,1.12-0.92,1.69l65.4,73.21c10.63-10.81,24.6-24.29,35.13-31.86l0.29-0.21c0.41-0.29,0.82-0.58,1.23-0.86    l0.19-0.13c0.45-0.31,0.92-0.62,1.38-0.92l0.24-0.15c0.35-0.22,0.73-0.46,1.12-0.7l0.35-0.21c0.42-0.25,0.82-0.48,1.21-0.7    c0.01,0,0.01-0.01,0.02-0.01l0.11-0.06c0.51-0.28,0.97-0.52,1.41-0.75l0.35-0.17c0.39-0.19,0.75-0.36,1.11-0.51l0.41-0.18    c0.53-0.22,1.04-0.42,1.52-0.6c13.28-4.65,26.69-0.65,39.88,11.87c4.35,4.13,8.76,9.23,13.48,15.58c1.51,2.03,2.85,4.15,3.99,6.31    c2.56,4.85,4.12,9.84,4.62,14.83c0.14,1.38,0.19,2.76,0.16,4.1c-0.03,1.36-0.15,2.71-0.36,4c-0.34,2.18-0.93,4.22-1.73,6.09    c0.15-0.09,0.31-0.18,0.47-0.26c2.64-1.44,5.56-2.25,8.68-2.41c1.76-0.09,3.6,0.03,5.44,0.36c1.63,0.29,3.29,0.75,4.95,1.36    c6.28,2.31,12.76,6.92,18.24,12.98c1.74,1.93,3.36,3.97,4.8,6.08c0.49,0.72,0.97,1.45,1.42,2.19c6.1,9.9,7.98,20.2,5.29,28.99    c-1.81,5.92-6.28,12.53-14.08,20.82c-0.39,0.42-0.79,0.84-1.19,1.25c-3.63,3.77-7.97,7.91-12.91,12.31    c-1.8,1.6-3.62,3.18-5.43,4.73l-1.36,1.16c-3.65,3.09-7.57,6.3-11.66,9.55l-1.19,0.95c-1.6,1.27-3.23,2.53-4.86,3.79    c-0.04,1.27-0.16,2.54-0.35,3.8c-0.32,2.07-0.84,4.12-1.54,6.08c-0.71,1.99-1.63,3.93-2.72,5.74    C418.37,455.01,416.27,457.55,413.81,459.74z M396.27,444.48c0.61-0.28,1.22-0.66,1.82-1.11c0.26-0.2,0.46-0.34,0.64-0.5    c0.76-0.68,1.4-1.45,1.92-2.31c0.33-0.55,0.61-1.13,0.82-1.74c0.22-0.6,0.37-1.23,0.47-1.87c0.17-1.11,0.14-2.28-0.1-3.47    c-0.84-4.26,0.82-8.63,4.29-11.24c3.13-2.36,6.28-4.79,9.36-7.22l1.15-0.91c3.9-3.1,7.64-6.16,11.11-9.1l1.28-1.09    c1.7-1.45,3.4-2.93,5.09-4.43c4.52-4,8.43-7.74,11.66-11.1c0.35-0.36,0.68-0.71,1.02-1.07c7.43-7.89,8.73-11.32,8.92-11.92    c0.73-2.38-0.39-6.4-2.92-10.51c-0.27-0.43-0.54-0.86-0.83-1.28c-0.87-1.27-1.84-2.5-2.91-3.68c-2.97-3.29-6.43-5.87-9.25-6.91    c-0.27-0.1-0.51-0.17-0.7-0.22c0.21,0.74,0.53,1.67,0.78,2.42c0.17,0.51,0.35,1.04,0.53,1.58c0.23,0.71,0.39,1.44,0.48,2.18    c1.35,11.33,1.39,15.48,1.35,16.73c-0.04,1.05-0.22,2.09-0.54,3.08c-1.82,5.63-5.65,10.41-11.07,13.84    c-0.07,0.05-0.15,0.1-0.21,0.13c-0.55,0.34-1.11,0.66-1.69,0.97c-0.12,0.06-0.25,0.14-0.39,0.21c-0.5,0.26-1.03,0.51-1.58,0.76    l-0.53,0.24c-0.51,0.22-1.03,0.42-1.55,0.62c-0.23,0.08-0.45,0.16-0.67,0.24c-0.5,0.17-1.01,0.34-1.52,0.49    c-0.29,0.08-0.54,0.15-0.79,0.22c-0.48,0.13-0.98,0.26-1.49,0.37c-0.26,0.06-0.53,0.11-0.81,0.17c-0.56,0.11-1.05,0.2-1.54,0.28    c-0.26,0.04-0.53,0.08-0.8,0.11l-0.14,0.02c-0.53,0.07-0.99,0.13-1.47,0.17c-0.32,0.03-0.62,0.05-0.92,0.07l-0.25,0.02    c-0.43,0.03-0.86,0.06-1.29,0.07c-0.35,0.01-0.69,0.01-1.02,0.01l-0.38,0c-0.37,0-0.75,0-1.13-0.01    c-0.43-0.01-0.84-0.04-1.25-0.07l-0.41-0.03c-0.34-0.02-0.69-0.04-1.04-0.08c-0.8-0.08-1.61-0.17-2.43-0.3    c-0.29-0.04-0.57-0.09-0.85-0.15l-0.13-0.02c-0.63-0.11-1.16-0.2-1.69-0.32c-0.28-0.06-0.58-0.13-0.88-0.2l-0.31-0.07    c-0.49-0.12-0.99-0.23-1.48-0.37c-0.31-0.09-0.61-0.18-0.92-0.27l-0.2-0.06c-0.52-0.16-1.05-0.31-1.57-0.49    c-0.31-0.1-0.64-0.22-0.97-0.34l-0.17-0.06c-0.51-0.19-1.03-0.38-1.55-0.58c-0.38-0.15-0.78-0.32-1.17-0.49    c-0.5-0.21-1.02-0.44-1.53-0.68c-0.38-0.18-0.78-0.37-1.17-0.56c-0.51-0.25-1.02-0.51-1.53-0.78c-0.38-0.2-0.78-0.41-1.17-0.64    c-0.49-0.28-1-0.57-1.5-0.87c-0.4-0.24-0.78-0.47-1.17-0.71c-0.51-0.32-1.02-0.66-1.53-1l-0.11-0.07    c-0.34-0.23-0.69-0.46-1.03-0.7c-0.51-0.36-1.03-0.74-1.54-1.12l-0.22-0.16c-0.29-0.22-0.59-0.44-0.88-0.66    c-0.5-0.39-1.02-0.81-1.53-1.23l-0.28-0.23c-0.27-0.22-0.54-0.44-0.81-0.67c-0.55-0.47-1.11-0.98-1.67-1.49l-0.23-0.21    c-0.23-0.2-0.45-0.4-0.68-0.62c-0.86-0.81-1.72-1.65-2.53-2.49c-0.85-0.87-1.66-1.74-2.45-2.61c-1.55-1.72-3.03-3.48-4.39-5.23    c-2-2.59-3.8-5.23-5.35-7.86c-1.53-2.59-2.84-5.23-3.92-7.84c-0.71-1.72-1.32-3.47-1.83-5.19c-0.5-1.71-0.9-3.44-1.2-5.13    c-0.15-0.85-0.27-1.71-0.36-2.55c-0.19-1.68-0.27-3.36-0.24-5c0.03-1.64,0.16-3.28,0.41-4.86c0.25-1.59,0.6-3.17,1.07-4.67    c0.23-0.76,0.5-1.51,0.79-2.24c1.74-4.44,4.51-8.36,8.03-11.36c2.98-2.54,6.43-4.39,10.23-5.49c4.82-1.4,9.2-1.91,13.38-1.58    c1.06,0.08,2.13,0.23,3.16,0.42c1.01,0.19,2.03,0.44,3.01,0.74c5.52,1.67,9.85,4.76,13.7,7.85c0,0,0,0,0.01,0.01    c-0.27-0.67-0.59-1.38-0.99-2.13c-0.6-1.14-1.32-2.28-2.14-3.38c-3.93-5.29-7.49-9.43-10.89-12.66    c-9.87-9.36-14.91-7.6-16.81-6.93l-0.18,0.08c-0.2,0.09-0.31,0.14-0.42,0.19c-0.02,0.01-0.11,0.05-0.13,0.06    c-0.16,0.08-0.33,0.17-0.5,0.26c-0.05,0.03-0.1,0.05-0.14,0.08c-0.21,0.12-0.42,0.24-0.64,0.37l-0.19,0.12    c-0.22,0.14-0.46,0.28-0.7,0.44c-0.03,0.02-0.1,0.06-0.13,0.08c-0.31,0.2-0.63,0.41-0.95,0.63c-0.02,0.02-0.11,0.07-0.13,0.09    c-0.29,0.2-0.59,0.41-0.9,0.63l-0.24,0.17c-12.62,9.08-32.48,29.51-40.43,37.88c-2.18,2.29-5.22,3.57-8.38,3.52    c-3.16-0.05-6.16-1.42-8.26-3.78l-79.28-88.74c-3.57-3.99-3.85-9.94-0.67-14.25c0.96-1.3,1.81-2.55,2.53-3.7    c0.61-0.98,1.17-1.95,1.65-2.88c1.96-3.73,2.95-7.14,2.79-9.59c-0.01-0.19-0.04-0.37-0.06-0.55l11.19-1.73l-11.2,1.59    c-0.01-0.07-0.03-0.17-0.05-0.27c-0.01-0.02-0.01-0.04-0.01-0.05c-0.04-0.16-0.06-0.24-0.09-0.31c-0.01-0.02-0.02-0.05-0.03-0.08    c-0.01-0.02-0.03-0.06-0.04-0.09l-0.03-0.06c-0.02-0.02-0.04-0.06-0.06-0.09c-0.01-0.02-0.03-0.03-0.03-0.04    c-0.02-0.02-0.09-0.06-0.12-0.09c-0.03-0.02-0.07-0.04-0.08-0.05l-0.15-0.09c-0.02-0.01-0.06-0.03-0.1-0.05    c-0.04-0.02-0.09-0.04-0.14-0.06l-0.12-0.05c-0.05-0.02-0.12-0.05-0.19-0.08l-0.56-0.19c-0.07-0.02-0.19-0.05-0.3-0.08l-1.43-0.27    c-0.25-0.03-0.41-0.05-0.57-0.07l-0.5-0.04c-3.06-0.22-5.9-1.67-7.87-4.02c-1.97-2.35-2.9-5.4-2.58-8.45    c0.06-0.59,0.08-1.13,0.05-1.6c-0.01-0.21-0.03-0.41-0.06-0.6c-0.04-0.26-0.15-0.88-0.36-1.07c-2.89-2.61-4.24-6.51-3.57-10.35    c0.67-3.83,3.26-7.06,6.86-8.53c5.42-2.22,10.4-5.34,14.8-9.27c21.28-19.01,23.13-51.8,4.12-73.08c-0.59-0.66-1.23-1.34-1.91-2.02    l-0.64-0.61c-0.45-0.44-0.9-0.88-1.36-1.3c-0.12-0.11-0.25-0.22-0.38-0.33l-0.38-0.33c-0.43-0.38-0.87-0.76-1.31-1.12    c-0.17-0.14-0.33-0.26-0.5-0.39l-0.32-0.25c-0.44-0.34-0.89-0.69-1.34-1.02c-0.23-0.17-0.47-0.33-0.7-0.5l-0.12-0.08    c-0.48-0.34-0.95-0.66-1.43-0.97c-0.26-0.17-0.53-0.34-0.8-0.5c-0.51-0.32-1.02-0.62-1.53-0.92c-0.25-0.14-0.5-0.29-0.76-0.43    c-0.55-0.31-1.1-0.6-1.66-0.88l-0.67-0.34c-0.62-0.3-1.23-0.58-1.86-0.86l-0.53-0.23c-0.72-0.31-1.45-0.6-2.18-0.87l-0.29-0.11    c-1.04-0.38-2.09-0.73-3.14-1.04c5.06,1.6,32.42,11.66,36.61,43.79c0.01,0.09,0.02,0.17,0.03,0.26c0.03,0.28,0.06,0.55,0.08,0.82    l0.02,0.17c0.01,0.09,0.02,0.19,0.03,0.28c0.92,11.3-1.93,22.75-8.04,32.25c-0.06,0.09-0.11,0.18-0.17,0.26    c-7.17,10.49-16.64,16.13-19.38,17.6c-0.06,0.03-0.12,0.06-0.18,0.1c-5.5,2.84-11.42,4.66-17.6,5.39    c-1.58,0.19-3.17,0.04-4.69-0.43c-2.82-0.88-6.76-0.49-7.91-0.28c-3.57,0.69-7.21-0.39-9.86-2.88c-2.65-2.49-3.9-6.11-3.43-9.71    c1.41-10.85-1.81-21.58-8.83-29.44c-4.65-5.2-10.72-8.93-17.56-10.77c-2.04-0.55-3.83-1.64-5.23-3.09    c-1.7,1.09-3.7,1.74-5.83,1.79c-9.73,0.25-19.2,4.05-26.66,10.72c-7.21,6.44-12,15.11-13.51,24.41c-0.51,3.12-2.29,5.89-4.93,7.63    c-2.41,1.59-5.33,2.2-8.16,1.71c0.72,0.17,1.44,0.32,2.15,0.46c0.98-0.12,1.98-0.11,2.99,0.04c4.29,0.62,7.85,3.65,9.16,7.78    c1.54,4.86,4.04,9.25,7.43,13.05c7.05,7.89,16.98,12.18,27.96,12.07c3.67-0.03,7.14,1.72,9.29,4.7c2.15,2.98,2.72,6.82,1.52,10.3    c-0.35,1.02-0.61,2.01-0.78,3.03c-0.13,0.74-0.33,1.47-0.6,2.17c0.09,0.3,0.21,0.68,0.39,1.12c0.92,2.26,1.09,4.77,0.47,7.13    c-1.1,4.21-2.71,8.22-4.78,11.97c0.07-0.13,0.14-0.26,0.21-0.39c1.76-3.25,5-5.44,8.67-5.85c3.67-0.42,7.32,0.98,9.76,3.75    c0.01,0.01,0.07,0.08,0.23,0.22c0.01,0.01,0.09,0.07,0.09,0.08l0.39,0.28c0.1,0.06,0.17,0.1,0.25,0.15    c0.24,0.13,0.55,0.25,0.88,0.36c0.62,0.2,1.35,0.34,2.16,0.41c6.13,0.52,10.73,5.85,10.34,11.99c-0.01,0.12-0.02,0.29-0.03,0.43    c-0.04,0.48-0.11,0.95-0.21,1.42c0.09,0.16,0.2,0.32,0.3,0.49c0.13,0.21,0.26,0.42,0.38,0.64c0.1,0.18,0.27,0.45,0.68,0.76    c0.01,0.01,0.02,0.02,0.03,0.03l0,0c0.1,0.07,0.22,0.15,0.35,0.23c0.53,0.3,1.12,0.52,1.81,0.68c0.06,0.01,0.15,0.03,0.17,0.03    c0.26,0.05,0.51,0.1,0.77,0.13c0.01,0,0.13,0.02,0.15,0.02c0.34,0.04,0.66,0.06,0.98,0.08c0.05,0,0.11,0,0.17,0.01    c0.3,0.01,0.63,0,0.97-0.01l0.23-0.02c0.36-0.02,0.72-0.05,1.09-0.1l0.24-0.03c0,0,0.12-0.02,0.12-0.02    c0.32-0.04,0.65-0.1,0.99-0.16l0.4-0.07c0.42-0.09,0.85-0.19,1.27-0.3c0.11-0.03,0.21-0.06,0.31-0.08    c0.4-0.11,0.88-0.27,1.35-0.43l0.42-0.16c0.38-0.14,0.77-0.29,1.15-0.44c0.19-0.08,0.36-0.15,0.54-0.23    c0.38-0.17,0.76-0.34,1.15-0.53l0.51-0.24c0.56-0.28,1.11-0.58,1.67-0.9c0.01,0,0.02-0.01,0.02-0.01l0.65-0.38    c4.65-2.74,10.58-1.81,14.18,2.21l165.74,185.53c1.16,1.29,2.59,2.23,4.25,2.79c0.31,0.1,0.61,0.22,0.91,0.35    c0.11,0.05,0.19,0.08,0.26,0.11c0.41-0.01,0.81,0,1.22,0.03c1.68,0.13,3.36-0.15,4.86-0.82    C396.2,444.51,396.23,444.5,396.27,444.48z M418.41,373.58c0.05-0.03,0.1-0.07,0.14-0.09c0.4-0.25,0.71-0.51,0.96-0.75    c-0.12-1.85-0.39-4.98-0.96-9.94c-0.04-0.11-0.08-0.23-0.11-0.34c-1.52-4.51-3.99-11.83-0.11-19.5    c-5.91,2.6-12.94,1.62-18.89-2.99c-0.72-0.56-1.41-1.11-2.09-1.65c-0.96-0.78-1.88-1.53-2.76-2.26l-0.87-0.72    c-0.52-0.43-1.04-0.86-1.56-1.27c-2.4-1.93-4.36-3.32-6.09-3.84c-0.22-0.07-0.44-0.12-0.67-0.17c-0.24-0.04-0.48-0.08-0.73-0.1    c-1.39-0.11-3.17,0.14-5.29,0.76c-0.7,0.2-1.32,0.53-1.85,0.98c-0.68,0.61-1.24,1.4-1.64,2.41c-0.08,0.2-0.15,0.41-0.21,0.61    c-0.14,0.46-0.25,0.95-0.33,1.46c-0.09,0.57-0.14,1.17-0.15,1.79c-0.01,0.68,0.02,1.4,0.11,2.13c0.04,0.4,0.1,0.79,0.17,1.2    c0.15,0.85,0.35,1.74,0.62,2.63c0.28,0.96,0.63,1.95,1.04,2.94c0.66,1.62,1.5,3.28,2.48,4.95c1.07,1.81,2.33,3.66,3.75,5.49    c1,1.3,2.11,2.61,3.28,3.9c0.6,0.67,1.23,1.34,1.89,2.01c0.6,0.62,1.21,1.21,1.81,1.78l0.6,0.54c0.42,0.39,0.81,0.74,1.19,1.07    c0.13,0.11,0.25,0.21,0.37,0.31l0.34,0.28c0.39,0.32,0.73,0.6,1.07,0.87c0.16,0.12,0.31,0.23,0.46,0.34l0.28,0.21    c0.34,0.25,0.67,0.5,1.01,0.74c0.2,0.14,0.4,0.28,0.61,0.41l0.13,0.08c0.33,0.22,0.66,0.44,0.98,0.64    c0.24,0.15,0.48,0.3,0.73,0.44c0.31,0.18,0.62,0.37,0.94,0.55c0.24,0.14,0.47,0.26,0.71,0.38c0.32,0.17,0.62,0.32,0.93,0.47    c0.23,0.11,0.46,0.23,0.69,0.33c0.31,0.14,0.6,0.27,0.9,0.4c0.23,0.1,0.45,0.19,0.67,0.28c0.3,0.12,0.58,0.22,0.87,0.33l0.22,0.08    c0.14,0.05,0.28,0.1,0.42,0.15c0.3,0.1,0.58,0.18,0.87,0.27l0.62,0.19c0.23,0.06,0.47,0.12,0.71,0.17l0.7,0.17    c0.23,0.05,0.47,0.09,0.71,0.13l0.7,0.13c0.31,0.05,0.7,0.09,1.1,0.13l0.87,0.05c0.14,0.01,0.28,0.02,0.41,0.03l1.15,0    c0.12,0,0.28-0.02,0.43-0.03l0.63-0.04c0.17-0.02,0.36-0.04,0.56-0.07l0.42-0.06c0.18-0.03,0.38-0.07,0.57-0.11l0.32-0.07    c0.19-0.04,0.37-0.09,0.55-0.14l0.32-0.09c0.14-0.04,0.31-0.1,0.48-0.16l0.22-0.08c0.16-0.06,0.33-0.12,0.49-0.19l0.19-0.09    c0.12-0.05,0.26-0.12,0.4-0.19l0.13-0.07C418.16,373.73,418.29,373.66,418.41,373.58z M438.46,353.29    C438.46,353.29,438.46,353.29,438.46,353.29S438.46,353.29,438.46,353.29z M407.24,323.84L407.24,323.84L407.24,323.84z     M142.35,256c0.01-0.01,0.02-0.02,0.04-0.03C142.38,255.98,142.37,255.99,142.35,256z M134.83,261.57    c0.26-0.16,0.52-0.32,0.78-0.48c0.03-0.02,0.05-0.03,0.08-0.05c-0.25,0.16-0.5,0.32-0.76,0.48c0,0,0,0,0,0L134.83,261.57z     M132.74,262.79c0.19-0.1,0.37-0.2,0.55-0.3c-0.09,0.05-0.17,0.1-0.26,0.14L132.74,262.79z M130.57,263.91    c0.27-0.13,0.54-0.26,0.8-0.39c0.04-0.02,0.08-0.04,0.12-0.06c-0.23,0.12-0.47,0.23-0.7,0.34L130.57,263.91z M126.71,265.6    c0.15-0.05,0.3-0.11,0.44-0.17c0.7-0.28,1.38-0.57,2.07-0.88c0.09-0.04,0.18-0.08,0.26-0.12c-0.33,0.15-0.66,0.29-0.99,0.43    l-0.21,0.09c-0.31,0.13-0.62,0.27-0.93,0.39C127.14,265.43,126.93,265.52,126.71,265.6z M123.08,242.23    c0.68-0.42,1.26-0.8,1.77-1.17c0.86-0.61,1.67-1.27,2.42-1.94c3.49-3.12,6.15-7,7.79-11.34c-0.41-1.58-0.66-3.06-0.77-4.43    c-12.17-2.64-23.24-8.96-31.53-18.25c-3.59-4.02-6.57-8.45-8.9-13.23c-1.93,1.05-3.73,2.33-5.39,3.81    c-11.98,10.7-13.02,29.15-2.32,41.12c0.33,0.37,0.66,0.72,1,1.06l0.34,0.33c0.27,0.27,0.48,0.47,0.69,0.67l0.42,0.37    c0.25,0.22,0.45,0.4,0.65,0.57l0.47,0.38c0.23,0.19,0.43,0.35,0.63,0.5l0.51,0.37c0.19,0.14,0.41,0.29,0.63,0.44    c0.15,0.1,0.31,0.2,0.47,0.31c0.27,0.18,0.48,0.31,0.7,0.44c0.19,0.12,0.37,0.22,0.55,0.33c0.21,0.12,0.43,0.25,0.66,0.37    c0.16,0.09,0.36,0.19,0.56,0.3c0.2,0.11,0.43,0.22,0.66,0.33c0.18,0.09,0.38,0.18,0.57,0.27c0.22,0.1,0.45,0.2,0.68,0.3    c0.19,0.08,0.38,0.16,0.57,0.24c0.24,0.1,0.48,0.18,0.71,0.27l0.59,0.22c0.23,0.08,0.46,0.15,0.7,0.23l0.58,0.19    c0.23,0.07,0.44,0.12,0.66,0.18l0.66,0.18c0.19,0.05,0.37,0.08,0.55,0.12l0.78,0.17c0.21,0.04,0.4,0.07,0.6,0.11l0.77,0.13    c0.41,0.06,0.86,0.12,1.3,0.17l0.75,0.06c0.19,0.02,0.39,0.04,0.58,0.05l0.93,0.03c0.15,0.01,0.3,0.01,0.45,0.02l0.87-0.01    c0.16,0,0.33,0,0.49-0.01l0.83-0.05c0.17-0.01,0.34-0.02,0.52-0.03c0.2-0.02,0.38-0.04,0.56-0.05l0.15-0.02    c0.2-0.02,0.42-0.04,0.64-0.07c0.25-0.03,0.47-0.06,0.68-0.1c0.24-0.04,0.45-0.07,0.66-0.1c0.25-0.04,0.47-0.09,0.69-0.13    c0.23-0.05,0.44-0.09,0.65-0.14c0.24-0.05,0.47-0.11,0.7-0.16c0.2-0.05,0.41-0.11,0.63-0.16c0.23-0.06,0.46-0.13,0.69-0.19    c0.21-0.06,0.42-0.13,0.62-0.2c0.21-0.07,0.45-0.14,0.68-0.23c0.2-0.07,0.39-0.14,0.58-0.21c0.29-0.11,0.5-0.19,0.71-0.27    l0.58-0.25c0.01,0,0.11-0.05,0.12-0.05c0.19-0.08,0.38-0.16,0.56-0.25l0.77-0.38c0.16-0.08,0.32-0.15,0.47-0.23l0.82-0.45    c0.13-0.07,0.26-0.14,0.39-0.22L123.08,242.23z M221.61,153.58c0.99-0.55,6.93-3.98,11.28-10.28c3.37-5.3,4.94-11.69,4.44-18    l-0.05-0.48c-0.01-0.05-0.01-0.09-0.02-0.13c-2.56-19.05-19.07-24.45-20.95-25c-9.64-2.76-19.91-0.43-27.4,6.26    c-1.6,1.43-3.04,3.03-4.28,4.76c-0.04,0.06-0.08,0.11-0.12,0.17c4.49,2.86,8.57,6.32,12.15,10.33    c8.59,9.61,13.68,21.78,14.71,34.62c0.78,0.11,1.58,0.25,2.37,0.42C216.5,155.75,219.13,154.85,221.61,153.58z M73.58,256.16    c0.05,0.04,0.09,0.08,0.14,0.12c-0.02-0.02-0.04-0.04-0.06-0.05L73.58,256.16z M71.33,254.05c0.29,0.29,0.59,0.58,0.89,0.86    c-0.17-0.16-0.34-0.33-0.5-0.49l-0.15-0.14C71.49,254.2,71.41,254.13,71.33,254.05z M69.45,252.07    C69.45,252.08,69.45,252.08,69.45,252.07C69.45,252.08,69.45,252.08,69.45,252.07z M69.4,252.03    C69.4,252.03,69.4,252.03,69.4,252.03C69.4,252.03,69.4,252.03,69.4,252.03z M69.36,251.98    C69.36,251.98,69.36,251.98,69.36,251.98C69.36,251.98,69.36,251.98,69.36,251.98z M69.31,251.93    C69.31,251.93,69.32,251.93,69.31,251.93C69.32,251.93,69.31,251.93,69.31,251.93z M69.27,251.88L69.27,251.88L69.27,251.88z     M69.23,251.83C69.23,251.84,69.23,251.84,69.23,251.83C69.23,251.84,69.23,251.84,69.23,251.83z M69.19,251.79L69.19,251.79    C69.19,251.79,69.2,251.8,69.19,251.79z M56.2,214.95c-0.55,8.43,0.98,16.42,4.54,23.83C57.31,231.23,55.81,223.04,56.2,214.95z     M77.08,175.8c4.01-2.97,8.41-5.33,13.13-7.04c1.98-0.72,4.12-0.86,6.18-0.43c-0.07-0.02-0.13-0.04-0.2-0.06l0.06,0.02    c-2.35-0.62-4.67-1.42-6.91-2.37c-1.12-0.47-2.24-0.99-3.33-1.55c-0.09-0.05-0.21-0.11-0.32-0.17c-1.03-0.53-2-1.08-2.91-1.63    c-0.21-0.12-0.4-0.25-0.59-0.37c-0.99-0.61-1.79-1.15-2.54-1.68c-0.28-0.2-0.55-0.4-0.82-0.61l-0.1-0.08    c-0.55-0.41-1.08-0.8-1.59-1.21c2.53,2.19,3.96,5.4,3.9,8.75C81,170.64,79.57,173.69,77.08,175.8z M63.1,191.42    c-0.06,0.1-0.14,0.24-0.24,0.42c0.09-0.16,0.18-0.32,0.28-0.48C63.13,191.38,63.11,191.4,63.1,191.42z M159.56,104.76    c0.18-0.1,0.37-0.2,0.56-0.3c0.29-0.15,0.42-0.23,0.42-0.23c0.27-0.18,0.54-0.37,0.81-0.58l0.53-0.43    c0.12-0.09,0.23-0.18,0.35-0.28c0.17-0.15,0.34-0.3,0.5-0.45l0.4-0.36c0.13-0.13,0.26-0.25,0.38-0.37    c0.2-0.35,0.42-0.71,0.65-1.09l0.35-0.57c0.61-0.96,1.17-1.8,1.73-2.58c1.37-1.91,2.87-3.72,4.48-5.43    c-2.38,2.43-5.74,3.66-9.14,3.34c-3.39-0.32-6.44-2.14-8.33-4.96C156.06,94.89,158.19,99.7,159.56,104.76z M73.25,178.92    C73.25,178.93,73.25,178.93,73.25,178.92C73.25,178.93,73.25,178.93,73.25,178.92z M173.96,88.96    C173.96,88.96,173.96,88.96,173.96,88.96C173.96,88.96,173.96,88.96,173.96,88.96z M173.92,89C173.92,89,173.92,89,173.92,89    C173.92,89,173.92,89,173.92,89z M173.79,89.11C173.79,89.12,173.79,89.12,173.79,89.11C173.79,89.12,173.79,89.12,173.79,89.11z     M73.35,178.84c0,0-0.01,0.01-0.01,0.01C73.34,178.85,73.35,178.84,73.35,178.84z M173.88,89.04    C173.88,89.04,173.88,89.03,173.88,89.04C173.88,89.03,173.88,89.04,173.88,89.04z M85.78,164.24c0.03,0.01,0.05,0.03,0.08,0.04    C85.83,164.27,85.81,164.26,85.78,164.24z M74.33,156.18c0.54,0.5,1.09,0.99,1.66,1.48c-0.17-0.15-0.33-0.3-0.5-0.45l-0.54-0.48    C74.74,156.54,74.54,156.36,74.33,156.18z M90.23,96.61c-11.98,10.7-13.02,29.15-2.32,41.12c0.48,0.54,1,1.08,1.54,1.6    c0.12,0.11,0.25,0.22,0.37,0.33l0.89,0.8c0.12,0.11,0.23,0.21,0.35,0.32c0.35,0.29,0.74,0.57,1.11,0.85    c0.15,0.11,0.27,0.2,0.38,0.28c3.69-9.02,9.45-17.22,16.87-23.85c7.43-6.63,16.18-11.43,25.54-14.08    c-1.02-1.8-2.23-3.49-3.62-5.05C120.65,86.95,102.2,85.91,90.23,96.61z M148.23,83.85L148.23,83.85L148.23,83.85z M71.03,152.81    L71.03,152.81L71.03,152.81z M70.99,152.77c0,0.01,0.01,0.01,0.01,0.02C70.99,152.78,70.99,152.77,70.99,152.77z M70.95,152.73    c0.01,0.01,0.01,0.01,0.02,0.02C70.96,152.74,70.96,152.73,70.95,152.73z M70.92,152.69c0.01,0.01,0.01,0.02,0.02,0.03    C70.93,152.71,70.93,152.7,70.92,152.69z M63,140.8c2.05,4.28,4.7,8.26,7.92,11.89C67.66,149.02,65.02,145.02,63,140.8z     M64.83,92.4c-7.4,12.56-9.25,25.4-5.48,38.18C56.24,117.74,58.13,104,64.83,92.4z M74.97,79.9 M75.31,79.59    C75.31,79.59,75.32,79.59,75.31,79.59C75.32,79.59,75.31,79.59,75.31,79.59z M75.28,79.62c0,0,0.01-0.01,0.01-0.01    C75.29,79.61,75.28,79.61,75.28,79.62z M75.01,79.85C75.01,79.86,75.01,79.86,75.01,79.85C75.01,79.86,75.01,79.86,75.01,79.85z     M75.25,79.64c0,0,0.01-0.01,0.01-0.01C75.26,79.64,75.25,79.64,75.25,79.64z M75.06,79.81C75.06,79.81,75.06,79.82,75.06,79.81    L75.06,79.81z M75.22,79.67c0.01,0,0.01-0.01,0.02-0.01C75.23,79.66,75.22,79.67,75.22,79.67z M75.19,79.7    c0.01-0.01,0.01-0.01,0.02-0.02C75.2,79.69,75.19,79.69,75.19,79.7z M75.11,79.77c0,0-0.01,0.01-0.01,0.01    C75.1,79.78,75.1,79.77,75.11,79.77z M75.15,79.74c0.01-0.01,0.02-0.02,0.03-0.03C75.17,79.72,75.16,79.73,75.15,79.74z"/></g><g><g><g><path class="st1" d="M316.78,329.74c0,0,40.61-44.08,54.98-49.11s27.7,6.26,40.52,23.52s4.61,35.01-5.92,26.86      c-10.53-8.15-15.66-15.35-30.13-11.16c-14.47,4.19-19.85,26.55,4.17,51.26c24.03,24.71,50.3,15.54,51.11,1.16      c0.81-14.38-10.2-20.15,1.3-29.12s39.19,17.67,33.72,35.56c-5.47,17.9-58.83,56.45-58.83,56.45"/></g><g><path class="st2" d="M362.46,286.2c3.64-2.72,6.86-4.71,9.31-5.57c14.37-5.03,27.7,6.26,40.52,23.53      c12.82,17.26,4.61,35.01-5.92,26.86c-10.53-8.15-15.66-15.35-30.13-11.16c-14.47,4.19-19.85,26.55,4.17,51.26      c22.28,22.92,46.48,16.69,50.53,4.2c1.28,6.83,0.66,13.05-4.97,16.23c-9.93,5.62-37.09-0.03-52.78-19.04      c-15.69-19.01-25.92-47.22-9.59-55.96c16.33-8.74,31.4-3.34,21.66-19.35C378.75,286.51,368.53,285.62,362.46,286.2z       M432.81,343.15c-0.3,0.24-0.58,0.47-0.86,0.7c7.55,4.06,19.25,14.4,20.51,27.92c1.73,18.61-23.76,43.95-44.5,49.49      c-4.46,1.19-10.97-1.79-18.48-7.22l18.22,21.12c0,0,53.35-38.56,58.83-56.45S444.31,334.18,432.81,343.15z"/></g></g><g><g><path class="st1" d="M408.12,449.65l-3.69,3.3c-7.74,6.92-19.63,6.25-26.55-1.5L196.45,248.37c-6.92-7.74-6.25-19.63,1.5-26.55      l3.69-3.3c7.74-6.92,19.63-6.25,26.55,1.5L409.61,423.1C416.53,430.85,415.86,442.74,408.12,449.65z M255.35,85.65      c23.17,25.94,20.92,65.89-5.02,89.06c-16.43,14.68-38.48,19.15-58.32,13.86c-2.59,4.06-5.77,7.85-9.56,11.23      c-3.79,3.39-7.92,6.12-12.25,8.24c3.02,20.31-3.89,41.71-20.31,56.39c-25.94,23.17-65.89,20.92-89.06-5.02      s-20.92-65.89,5.02-89.06c1.26-1.13,2.57-2.17,3.89-3.18c-2.52-2.06-4.92-4.33-7.15-6.83c-23.17-25.94-20.92-65.89,5.02-89.06      c25.94-23.17,65.89-20.92,89.06,5.02c2.23,2.5,4.22,5.13,5.98,7.86c1.16-1.22,2.37-2.4,3.65-3.54      C192.23,57.46,232.18,59.72,255.35,85.65z M148.28,216.71l-0.57-3.3c-13.62,0.13-26.98-5.18-36.51-15.85      c-4.57-5.12-7.82-10.97-9.78-17.17c-0.09,0.13-0.18,0.28-0.27,0.4c-2.39-0.32-4.75-0.79-7.09-1.38      c-4.71,1.7-9.17,4.3-13.13,7.83c-16.63,14.86-18.07,40.47-3.22,57.1s40.47,18.07,57.1,3.22      C143.92,239.42,148.47,228.06,148.28,216.71z M150.88,112.91c-0.45-0.32-0.91-0.65-1.35-1.01c-1.18-7.39-4.4-14.53-9.74-20.51      c-14.86-16.63-40.47-18.07-57.1-3.22c-16.63,14.86-18.07,40.47-3.22,57.1c5.61,6.28,12.75,10.38,20.36,12.27      c1.85-11.46,7.62-22.53,17.14-31.04C126.81,117.72,138.92,113.22,150.88,112.91z M238.48,100.73      c-14.86-16.63-40.47-18.07-57.1-3.22c-3.65,3.26-6.57,7.04-8.74,11.12c-0.2,0.21-0.41,0.42-0.62,0.63c0,0,0,0,0,0.01      c-0.08,0.08-0.16,0.15-0.23,0.23c-0.28,0.28-0.56,0.56-0.85,0.84c-0.18,0.17-0.36,0.33-0.54,0.5c-0.26,0.24-0.52,0.48-0.79,0.7      c-0.26,0.22-0.52,0.43-0.78,0.64c-0.21,0.17-0.41,0.34-0.63,0.5c-0.49,0.37-0.98,0.72-1.49,1.05c-0.47,0.31-1,0.6-1.55,0.87      c8.68,2.33,16.72,7.06,23.06,14.15c9.61,10.76,13.39,24.8,11.61,38.44c12.2,2.6,25.43-0.43,35.42-9.36      C251.89,142.98,253.33,117.36,238.48,100.73z"/></g><g><path class="st2" d="M149.89,264.44c-11.24,10.04-25.11,15.3-39.11,15.93c-12.41-2.95-30.81-10.84-42.91-31.98      c-19.7-34.43-6.4-78.82,23.02-81.9c0,0-27.66-11.49-33.55-42.01c-4.99-25.87,8.16-52.97,29.59-64.99      c23.77-9.14,51.79-3.28,69.74,16.82c2.08,2.33,3.94,4.78,5.61,7.31c-6.46,11.68-6.81,25.19-6.81,25.19l-4.51-0.27      c3.28-9.07-4.71-29.88-26.95-36.45c-25.17-7.43-41.33,16.09-41.33,16.09c-16.63,14.86-18.07,40.47-3.22,57.1      c5.44,6.09,12.34,10.12,19.7,12.08c-1.85,11.76,1.98,23.43,1.98,23.43c-2.39-0.32-4.75-0.79-7.09-1.38      c-4.71,1.7-9.17,4.3-13.13,7.83c-16.63,14.86-18.07,40.47-3.22,57.1c13.91,15.57,37.25,17.83,53.82,5.86      c5.28-1.85,11.07-5.1,16.13-10.77c13.64-15.31,0.62-22.72,0.62-22.72l-0.27-1.54c10.7-2.15,22.5-4.69,22.5-4.69      C172.66,230.05,165.67,250.35,149.89,264.44z M255.35,85.65c23.17,25.94,20.92,65.89-5.02,89.06      c-16.43,14.68-38.48,19.15-58.32,13.86c-2.59,4.06-5.77,7.85-9.56,11.23c-3.11,2.78-6.45,5.11-9.93,7.03      c2.11-4.59,3.5-11.35-9.92-6.73c-19.36,6.66-47.98-7.12-50.6-40.62c-2.61-33.5,42.17-46.7,42.17-46.7      c6.84-25.54,39.71-42.18,53.46-48.13C225.2,64.47,242.76,71.55,255.35,85.65z M177.48,133.58      c-17.51-16.87-39.56,1.75-39.56,1.75l14.72,25.21c0,0-9.25,31.46,12.98,26.42C187.83,181.93,194.99,150.45,177.48,133.58z       M213.27,82.1c-33.02,0.89-37.83,22.02-37.83,22.02c-1.04,1.45-1.98,2.96-2.8,4.51c-0.2,0.21-0.41,0.42-0.62,0.63      c0,0,0,0,0,0.01c-0.08,0.08-0.16,0.15-0.23,0.23c-0.28,0.28-0.56,0.56-0.85,0.84c-0.18,0.17-0.36,0.33-0.54,0.5      c-0.26,0.24-0.52,0.48-0.79,0.7c-0.26,0.22-0.52,0.43-0.78,0.64c-0.21,0.17-0.41,0.34-0.63,0.5c-0.49,0.37-0.98,0.72-1.49,1.05      c-0.47,0.31-1,0.6-1.55,0.87c8.68,2.33,16.72,7.06,23.06,14.15c9.61,10.76,13.39,24.8,11.61,38.44      c3.55,0.76,7.2,1.02,10.82,0.82c1.86,4.06,4.27,7.95,6.99,8.9c6.16,2.17,32.19-12.37,40.84-39.82      C267.13,109.63,246.29,81.21,213.27,82.1z M199.79,220.17L199.79,220.17c-8.69,7.77-9.5,21.06-1.87,29.82l26.49-2.26      c0,0,160.03,181.75,171.57,192.06c5.39,4.82,7.53,9.47,8.3,13.07c0.68-0.48,1.35-0.99,1.98-1.56l0,0      c8.76-7.83,9.52-21.28,1.69-30.05l-178.12-199.4C222.01,213.1,208.56,212.34,199.79,220.17z"/></g></g><g><g><ellipse transform="matrix(0.7458 -0.6662 0.6662 0.7458 -70.6328 141.2184)" class="st28" cx="149.71" cy="163.15" rx="30.06" ry="28.61"/></g><g><path class="st31" d="M140.76,135.75c6.65-0.02,13.31,2.72,18.28,7.8c9.01,9.22,7.41,25.37-1.9,33.69      c-9.98,8.91-24.64,7.36-33.69-1.9c-0.69-0.7-1.3-1.45-1.87-2.22c1.14,3.63,3.03,7.07,5.71,10.06      c10.53,11.78,29.1,12.37,41.48,1.31c12.38-11.06,13.88-29.58,3.36-41.36C164.21,134.26,151.73,131.74,140.76,135.75z"/></g><g><path class="st6" d="M142.19,146.09c3.19,3.57,2.88,9.05-0.69,12.24c-3.57,3.19-9.05,2.88-12.24-0.69      c-3.19-3.57-2.88-9.05,0.69-12.24C133.52,142.21,139,142.52,142.19,146.09z M127.47,166.55c-1.26,1.13-1.37,3.06-0.24,4.32      c1.13,1.26,3.06,1.37,4.32,0.24c1.26-1.13,1.37-3.06,0.24-4.32C130.67,165.53,128.73,165.42,127.47,166.55z"/></g></g><g><g><path class="st1" d="M176.36,245.48c0,0,35.12-7.36,52.13-46.22c0,0,21.92-4.24,23.01,13s-21.17,40.37-41.76,52.26      C189.15,276.41,168.87,267.29,176.36,245.48z"/></g><g><path class="st2" d="M235.8,198.85c2.12,5.24,2.54,11.24,0.97,16.7c-3.56,12.39-11.76,24.18-22.35,32.71      c-10.14,9-22.58,15.04-36.43,15.7c5.82,7.19,18.72,8.09,31.75,0.57c20.59-11.89,42.85-35.03,41.76-52.26      C250.83,201.66,242.28,199.18,235.8,198.85z"/></g></g><g><g><path class="st1" d="M161.28,228.6c0,0,35.12-7.36,52.13-46.22c0,0,21.92-4.24,23.01,13s-21.17,40.37-41.76,52.26      C174.07,259.53,153.79,250.41,161.28,228.6z"/></g><g><path class="st2" d="M232.37,186.08c-2.21-2.03-5.05-3.11-7.86-3.66c-1.41-0.15-3.09-0.41-4.68-0.53      c0.78,1.66,1.39,3.4,1.71,5.22c6.11,33.88-27.92,52.72-55.5,60.4c-0.77,0.21-1.54,0.37-2.3,0.49c1.06,1.1,2.3,2.02,3.7,2.76      c6.71,3.52,16.93,2.83,27.22-3.12c20.59-11.89,42.85-35.03,41.76-52.26C236.15,191.07,234.58,188.1,232.37,186.08z"/></g></g><g><g><path class="st1" d="M147.71,213.41c0,0,35.12-7.36,52.13-46.22c0,0,21.92-4.24,23.01,13s-21.17,40.37-41.76,52.26      C160.5,244.34,140.22,235.22,147.71,213.41z"/></g><g><path class="st2" d="M212.54,177.33c-11.31,22.09-36.34,56.26-63.97,53.51c5.39,8.14,18.88,9.49,32.52,1.61      c20.59-11.89,42.85-35.03,41.76-52.26c-0.4-6.26-3.55-9.68-7.4-11.51C214.92,171.68,213.93,174.62,212.54,177.33z"/></g></g><g><path class="st6" d="M69.74,167.18c0,0-41.9-35.78-14.12-81.43C55.62,85.75,42.43,128.29,69.74,167.18z M53.6,185.26     c0,0-27.67,44.06,14.92,81.44C68.52,266.7,36.31,224.31,53.6,185.26z M112.5,131c0,0-37.28,42.54,14.6,78.15     C127.1,209.16,85.21,170.62,112.5,131z M156.43,134.37c0,0,25.32,3.44,22.53,30.53C178.96,164.9,188.95,130.89,156.43,134.37z      M219.35,88.79c0,0,25.55,6.93,29.15,34.58c3.6,27.65-21.92,40.38-21.92,40.38s21.78-1.61,28.51-30.48     C261.82,104.41,233.47,87,219.35,88.79z M179.47,200.83c17.46-16.8,16.89-27.34,16.89-27.34     c-19.11,32.88-42.33,40.44-48.08,43.21c-5.74,2.77-0.62,12.54-0.62,12.54C143.73,224.41,162.01,217.63,179.47,200.83z      M167.07,248.06c-1.07-7.02,10.48-4.33,28.99-23.51s21.75-27.03,21.75-27.03c-30.23,40.63-56.06,40.13-56.06,40.13     c-3.47,4.03,1.98,10.35,1.98,10.35 M201.29,249.18c14.96-13.71,25.77-29.92,25.77-29.92c-29.92,35.09-45.96,33.31-51.49,33.58     c-5.53,0.28,2.43,11.11,2.43,11.11S186.33,262.89,201.29,249.18z M211.92,265.66c0,0,160.46,179.6,161.42,180.7     c0.96,1.09,10.12,10.82,16.99,10.28c6.88-0.55,10.49-1.79,10.49-1.79s-10.65-0.11-36.81-30.07     C337.85,394.82,218.15,259.1,218.15,259.1 M432.65,385.92c3.08-2.28,8.21-14.83,2.95-25.09c-5.26-10.26-3.64-16.97-3.64-16.97     s-3.72,4.62-2.3,16.47s1.28,14.98,1.28,14.98 M81.83,63.82c-3.8,3.4,1.47,9.31,5.28,5.91C90.91,66.33,85.64,60.41,81.83,63.82z      M71.79,74.41c-0.54,0.49,0.21,1.33,0.75,0.84C73.08,74.77,72.33,73.93,71.79,74.41z M246.04,78.41     c-0.45-0.26-0.93-0.39-1.46-0.4c-0.34,0.02-0.67,0.05-1.01,0.07c-0.7,0.14-1.32,0.45-1.85,0.93c-0.23,0.27-0.46,0.54-0.69,0.81     c-0.37,0.59-0.58,1.23-0.62,1.92l-0.06,1.03c-0.05,0.52,0.03,1.02,0.24,1.5c0.13,0.52,0.38,0.97,0.76,1.37     c0.35,0.42,0.77,0.72,1.27,0.91c0.45,0.26,0.93,0.39,1.46,0.41c0.34-0.02,0.67-0.05,1.01-0.07c0.7-0.14,1.32-0.45,1.85-0.93     c0.23-0.27,0.46-0.54,0.69-0.81c0.37-0.59,0.58-1.23,0.62-1.92c0.02-0.34,0.04-0.68,0.06-1.03c0.05-0.52-0.03-1.02-0.24-1.5     c-0.13-0.52-0.38-0.97-0.76-1.37C246.97,78.9,246.54,78.6,246.04,78.41z M253.79,90.34c-0.54,0.49,0.21,1.33,0.75,0.84     C255.09,90.7,254.34,89.85,253.79,90.34z M120.64,268.33c-0.5-0.32-1.05-0.5-1.65-0.54c-0.29,0.02-0.58,0.04-0.87,0.06     c-0.6,0.12-1.13,0.39-1.59,0.8l-0.54,0.48c-0.36,0.3-0.62,0.66-0.78,1.09c-0.22,0.38-0.34,0.8-0.35,1.25     c-0.04,0.45,0.03,0.88,0.2,1.28c0.11,0.44,0.33,0.83,0.65,1.17c0.23,0.2,0.46,0.39,0.69,0.59c0.5,0.32,1.05,0.5,1.65,0.54     c0.29-0.02,0.58-0.04,0.87-0.06c0.6-0.12,1.13-0.39,1.59-0.8l0.54-0.48c0.36-0.3,0.62-0.66,0.78-1.09     c0.22-0.38,0.34-0.8,0.35-1.25c0.04-0.45-0.03-0.88-0.2-1.28c-0.11-0.44-0.33-0.83-0.65-1.17     C121.1,268.73,120.87,268.53,120.64,268.33z M127.53,266.76c-1.09,0.97,0.42,2.66,1.51,1.69     C130.12,267.47,128.61,265.78,127.53,266.76z M242.39,247.93c-3.26,2.91,1.26,7.98,4.52,5.06     C250.18,250.08,245.66,245.01,242.39,247.93z M254.46,257.7c-0.13-0.07-0.27-0.11-0.42-0.12c-0.15-0.01-0.29,0.01-0.43,0.07     c-0.15,0.04-0.28,0.11-0.39,0.22c-0.07,0.08-0.13,0.15-0.2,0.23c-0.11,0.17-0.17,0.35-0.18,0.55c0.01,0.1,0.01,0.19,0.02,0.29     c0.04,0.2,0.13,0.38,0.27,0.53l0.48,0.54c0.1,0.12,0.22,0.21,0.36,0.26c0.13,0.07,0.27,0.11,0.42,0.12     c0.15,0.01,0.29-0.01,0.43-0.07c0.15-0.04,0.28-0.11,0.39-0.22l0.2-0.23c0.11-0.17,0.17-0.35,0.18-0.55     c-0.01-0.1-0.01-0.19-0.02-0.29c-0.04-0.2-0.13-0.38-0.27-0.53l-0.48-0.54C254.72,257.84,254.6,257.75,254.46,257.7z      M381.24,398.99c-0.67-0.43-1.4-0.67-2.2-0.71c-0.38,0.03-0.77,0.05-1.15,0.08c-0.8,0.17-1.5,0.52-2.12,1.06l-0.54,0.48     c-0.48,0.4-0.83,0.88-1.04,1.45c-0.3,0.51-0.45,1.07-0.46,1.67c-0.06,0.6,0.03,1.17,0.27,1.71c0.15,0.59,0.44,1.11,0.87,1.56     c0.31,0.26,0.61,0.53,0.92,0.79c0.67,0.43,1.4,0.67,2.2,0.71c0.38-0.03,0.77-0.05,1.15-0.08c0.8-0.16,1.5-0.52,2.12-1.06     l0.54-0.48c0.48-0.4,0.83-0.88,1.04-1.45c0.3-0.51,0.45-1.07,0.46-1.67c0.06-0.6-0.03-1.17-0.27-1.71     c-0.15-0.59-0.44-1.11-0.87-1.56C381.86,399.52,381.55,399.25,381.24,398.99z M389.99,412.69c-0.13-0.07-0.27-0.11-0.42-0.12     c-0.1,0.01-0.19,0.01-0.29,0.02c-0.2,0.04-0.38,0.13-0.53,0.27c-0.07,0.08-0.13,0.15-0.2,0.23c-0.11,0.17-0.17,0.35-0.18,0.55     c-0.02,0.34-0.04,0.68-0.06,1.03c-0.01,0.15,0.01,0.29,0.07,0.43c0.04,0.15,0.11,0.28,0.22,0.39c0.1,0.12,0.22,0.21,0.36,0.26     c0.13,0.07,0.27,0.11,0.42,0.12c0.1-0.01,0.19-0.01,0.29-0.02c0.2-0.04,0.38-0.13,0.53-0.27c0.07-0.08,0.13-0.15,0.2-0.23     c0.11-0.17,0.17-0.35,0.18-0.55l0.06-1.03c0.01-0.15-0.01-0.29-0.07-0.43c-0.04-0.15-0.11-0.28-0.22-0.39     C390.25,412.83,390.13,412.74,389.99,412.69z M395.95,295.33c-3.8,3.4,1.47,9.31,5.28,5.91     C405.03,297.85,399.76,291.93,395.95,295.33z M406.99,308.78c-1.09,0.97,0.42,2.66,1.51,1.69     C409.58,309.5,408.07,307.81,406.99,308.78z M454.38,360.74c-2.72,2.43,1.05,6.65,3.77,4.22     C460.86,362.53,457.1,358.31,454.38,360.74z M459.59,369.85c-0.54,0.48,0.21,1.33,0.75,0.84     C460.89,370.21,460.13,369.36,459.59,369.85z"/></g></g></g></svg>